<mxfile host="Electron" agent="Mozilla/5.0 (Macintosh; Intel Mac OS X 10_15_7) AppleWebKit/537.36 (KHTML, like Gecko) draw.io/28.1.2 Chrome/138.0.7204.243 Electron/37.4.0 Safari/537.36" version="28.1.2">
  <diagram name="페이지-1" id="9aGk6qEdKFCwHb3GMW45">
    <mxGraphModel dx="222" dy="1511" grid="1" gridSize="10" guides="1" tooltips="1" connect="1" arrows="1" fold="1" page="1" pageScale="1" pageWidth="827" pageHeight="1169" math="1" shadow="0">
      <root>
        <mxCell id="0" />
        <mxCell id="1" parent="0" />
        <mxCell id="qMLOkEwiD3FjP3INkufq-1" value="`\sum_{t = 0}^4 C(s_t, a_t) = 1.0 \leq d`" style="text;html=1;align=center;verticalAlign=middle;whiteSpace=wrap;rounded=0;fontSize=30;fontColor=#FFD966;" vertex="1" parent="1">
          <mxGeometry x="910" y="110" width="390" height="130" as="geometry" />
        </mxCell>
        <mxCell id="SB_XbFN75qQYpwVMNyd7-46" value="" style="group;rotation=-135;" parent="1" vertex="1" connectable="0">
          <mxGeometry x="1025.003950546386" y="728.0028827345207" width="166.99604945361398" height="120" as="geometry" />
        </mxCell>
        <mxCell id="SB_XbFN75qQYpwVMNyd7-47" value="" style="rounded=0;whiteSpace=wrap;html=1;fillColor=#f8cecc;strokeColor=default;rotation=-135;" parent="SB_XbFN75qQYpwVMNyd7-46" vertex="1">
          <mxGeometry x="41" y="19" width="78.75" height="68.57142857142857" as="geometry" />
        </mxCell>
        <mxCell id="SB_XbFN75qQYpwVMNyd7-48" value="" style="rounded=0;whiteSpace=wrap;html=1;fillColor=#dae8fc;strokeColor=default;rotation=-135;" parent="SB_XbFN75qQYpwVMNyd7-46" vertex="1">
          <mxGeometry x="97" y="15" width="26.25" height="17.142857142857142" as="geometry" />
        </mxCell>
        <mxCell id="SB_XbFN75qQYpwVMNyd7-49" value="" style="rounded=0;whiteSpace=wrap;html=1;fillColor=#dae8fc;strokeColor=default;rotation=-135;" parent="SB_XbFN75qQYpwVMNyd7-46" vertex="1">
          <mxGeometry x="45" y="75" width="8.75" height="17.142857142857142" as="geometry" />
        </mxCell>
        <mxCell id="SB_XbFN75qQYpwVMNyd7-50" value="" style="rounded=0;whiteSpace=wrap;html=1;fillColor=#dae8fc;strokeColor=default;rotation=-135;" parent="SB_XbFN75qQYpwVMNyd7-46" vertex="1">
          <mxGeometry x="-9" y="89" width="96.25" height="8.571428571428571" as="geometry" />
        </mxCell>
        <mxCell id="SB_XbFN75qQYpwVMNyd7-51" value="" style="shape=cylinder3;whiteSpace=wrap;html=1;boundedLbl=1;backgroundOutline=1;size=2.875;direction=south;fillColor=#f8cecc;strokeColor=default;rotation=-135;" parent="SB_XbFN75qQYpwVMNyd7-46" vertex="1">
          <mxGeometry x="-13" y="39" width="21.875" height="25.71428571428571" as="geometry" />
        </mxCell>
        <mxCell id="SB_XbFN75qQYpwVMNyd7-52" value="" style="shape=cylinder3;whiteSpace=wrap;html=1;boundedLbl=1;backgroundOutline=1;size=2.875;direction=south;fillColor=#f8cecc;strokeColor=default;rotation=-135;" parent="SB_XbFN75qQYpwVMNyd7-46" vertex="1">
          <mxGeometry x="71" y="121" width="21.875" height="25.71428571428571" as="geometry" />
        </mxCell>
        <mxCell id="SB_XbFN75qQYpwVMNyd7-53" value="&lt;span style=&quot;font-weight: 400;&quot;&gt;&lt;font style=&quot;color: rgb(0, 0, 0);&quot;&gt;`t = 1`&lt;/font&gt;&lt;/span&gt;" style="text;html=1;align=center;verticalAlign=middle;whiteSpace=wrap;rounded=0;fontSize=30;fontColor=#B9E0A5;fontStyle=1" parent="SB_XbFN75qQYpwVMNyd7-46" vertex="1">
          <mxGeometry x="-9.623950546386023" y="36.857117265479346" width="180" height="30" as="geometry" />
        </mxCell>
        <mxCell id="SB_XbFN75qQYpwVMNyd7-54" value="" style="ellipse;whiteSpace=wrap;html=1;fillColor=#e1d5e7;strokeColor=#9673a6;" parent="1" vertex="1">
          <mxGeometry x="1219" y="643" width="80" height="75" as="geometry" />
        </mxCell>
        <mxCell id="SB_XbFN75qQYpwVMNyd7-55" value="" style="shape=cylinder3;whiteSpace=wrap;html=1;boundedLbl=1;backgroundOutline=1;size=9.481481481481381;fillColor=#d5e8d4;strokeColor=#82b366;" parent="1" vertex="1">
          <mxGeometry x="1299" y="263" width="140" height="90" as="geometry" />
        </mxCell>
        <mxCell id="SB_XbFN75qQYpwVMNyd7-56" value="Goal" style="text;html=1;align=center;verticalAlign=middle;whiteSpace=wrap;rounded=0;fontSize=30;fontColor=#B9E0A5;fontStyle=1" parent="1" vertex="1">
          <mxGeometry x="1339" y="223" width="76" height="53" as="geometry" />
        </mxCell>
        <mxCell id="SB_XbFN75qQYpwVMNyd7-57" value="&lt;font style=&quot;color: rgb(234, 107, 102);&quot;&gt;Agent&lt;/font&gt;" style="text;html=1;align=center;verticalAlign=middle;whiteSpace=wrap;rounded=0;fontSize=30;fontColor=#B9E0A5;fontStyle=1" parent="1" vertex="1">
          <mxGeometry x="935" y="743" width="90" height="30" as="geometry" />
        </mxCell>
        <mxCell id="SB_XbFN75qQYpwVMNyd7-58" value="&lt;font style=&quot;color: rgb(181, 115, 157);&quot;&gt;Hazard&lt;/font&gt;" style="text;html=1;align=center;verticalAlign=middle;whiteSpace=wrap;rounded=0;fontSize=30;fontColor=#B9E0A5;fontStyle=1" parent="1" vertex="1">
          <mxGeometry x="1239" y="603" width="106" height="30" as="geometry" />
        </mxCell>
        <mxCell id="SB_XbFN75qQYpwVMNyd7-59" value="" style="ellipse;whiteSpace=wrap;html=1;fillColor=#e1d5e7;strokeColor=#9673a6;" parent="1" vertex="1">
          <mxGeometry x="1045" y="528" width="80" height="75" as="geometry" />
        </mxCell>
        <mxCell id="SB_XbFN75qQYpwVMNyd7-60" value="" style="group;rotation=-150;opacity=23;" parent="1" vertex="1" connectable="0">
          <mxGeometry x="1144.9960145752998" y="619.0022762685367" width="168.3739854247002" height="120" as="geometry" />
        </mxCell>
        <mxCell id="SB_XbFN75qQYpwVMNyd7-61" value="" style="rounded=0;whiteSpace=wrap;html=1;fillColor=#f8cecc;strokeColor=default;rotation=-150;" parent="SB_XbFN75qQYpwVMNyd7-60" vertex="1">
          <mxGeometry x="39" y="17" width="78.75" height="68.57142857142857" as="geometry" />
        </mxCell>
        <mxCell id="SB_XbFN75qQYpwVMNyd7-62" value="" style="rounded=0;whiteSpace=wrap;html=1;fillColor=#dae8fc;strokeColor=default;rotation=-150;" parent="SB_XbFN75qQYpwVMNyd7-60" vertex="1">
          <mxGeometry x="87" y="6" width="26.25" height="17.142857142857142" as="geometry" />
        </mxCell>
        <mxCell id="SB_XbFN75qQYpwVMNyd7-63" value="" style="rounded=0;whiteSpace=wrap;html=1;fillColor=#dae8fc;strokeColor=default;rotation=-150;" parent="SB_XbFN75qQYpwVMNyd7-60" vertex="1">
          <mxGeometry x="52" y="80" width="8.75" height="17.142857142857142" as="geometry" />
        </mxCell>
        <mxCell id="SB_XbFN75qQYpwVMNyd7-64" value="" style="rounded=0;whiteSpace=wrap;html=1;fillColor=#dae8fc;strokeColor=default;rotation=-150;" parent="SB_XbFN75qQYpwVMNyd7-60" vertex="1">
          <mxGeometry x="1" y="96" width="96.25" height="8.571428571428571" as="geometry" />
        </mxCell>
        <mxCell id="SB_XbFN75qQYpwVMNyd7-65" value="" style="shape=cylinder3;whiteSpace=wrap;html=1;boundedLbl=1;backgroundOutline=1;size=2.875;direction=south;fillColor=#f8cecc;strokeColor=default;rotation=-150;" parent="SB_XbFN75qQYpwVMNyd7-60" vertex="1">
          <mxGeometry x="-13" y="58" width="21.875" height="25.71428571428571" as="geometry" />
        </mxCell>
        <mxCell id="SB_XbFN75qQYpwVMNyd7-66" value="" style="shape=cylinder3;whiteSpace=wrap;html=1;boundedLbl=1;backgroundOutline=1;size=2.875;direction=south;fillColor=#f8cecc;strokeColor=default;rotation=-150;" parent="SB_XbFN75qQYpwVMNyd7-60" vertex="1">
          <mxGeometry x="89" y="116" width="21.875" height="25.71428571428571" as="geometry" />
        </mxCell>
        <mxCell id="SB_XbFN75qQYpwVMNyd7-67" value="&lt;span style=&quot;font-weight: 400;&quot;&gt;&lt;font style=&quot;color: rgb(0, 0, 0);&quot;&gt;`t = 2`&lt;/font&gt;&lt;/span&gt;" style="text;html=1;align=center;verticalAlign=middle;whiteSpace=wrap;rounded=0;fontSize=30;fontColor=#B9E0A5;fontStyle=1" parent="SB_XbFN75qQYpwVMNyd7-60" vertex="1">
          <mxGeometry x="-11.626014575299791" y="36.2877237314633" width="180" height="30" as="geometry" />
        </mxCell>
        <mxCell id="SB_XbFN75qQYpwVMNyd7-68" value="" style="group;rotation=-165;opacity=23;" parent="1" vertex="1" connectable="0">
          <mxGeometry x="1205.0017782649106" y="463.0015242270663" width="165.37822173508937" height="120" as="geometry" />
        </mxCell>
        <mxCell id="SB_XbFN75qQYpwVMNyd7-69" value="" style="rounded=0;whiteSpace=wrap;html=1;fillColor=#f8cecc;strokeColor=default;rotation=-165;" parent="SB_XbFN75qQYpwVMNyd7-68" vertex="1">
          <mxGeometry x="36" y="15" width="78.75" height="68.57142857142857" as="geometry" />
        </mxCell>
        <mxCell id="SB_XbFN75qQYpwVMNyd7-70" value="" style="rounded=0;whiteSpace=wrap;html=1;fillColor=#dae8fc;strokeColor=default;rotation=-165;" parent="SB_XbFN75qQYpwVMNyd7-68" vertex="1">
          <mxGeometry x="74" width="26.25" height="17.142857142857142" as="geometry" />
        </mxCell>
        <mxCell id="SB_XbFN75qQYpwVMNyd7-71" value="" style="rounded=0;whiteSpace=wrap;html=1;fillColor=#dae8fc;strokeColor=default;rotation=-165;" parent="SB_XbFN75qQYpwVMNyd7-68" vertex="1">
          <mxGeometry x="60" y="83" width="8.75" height="17.142857142857142" as="geometry" />
        </mxCell>
        <mxCell id="SB_XbFN75qQYpwVMNyd7-72" value="" style="rounded=0;whiteSpace=wrap;html=1;fillColor=#dae8fc;strokeColor=default;rotation=-165;" parent="SB_XbFN75qQYpwVMNyd7-68" vertex="1">
          <mxGeometry x="12" y="100" width="96.25" height="8.571428571428571" as="geometry" />
        </mxCell>
        <mxCell id="SB_XbFN75qQYpwVMNyd7-73" value="" style="shape=cylinder3;whiteSpace=wrap;html=1;boundedLbl=1;backgroundOutline=1;size=2.875;direction=south;fillColor=#f8cecc;strokeColor=default;rotation=-165;" parent="SB_XbFN75qQYpwVMNyd7-68" vertex="1">
          <mxGeometry x="-8" y="76" width="21.875" height="25.71428571428571" as="geometry" />
        </mxCell>
        <mxCell id="SB_XbFN75qQYpwVMNyd7-74" value="" style="shape=cylinder3;whiteSpace=wrap;html=1;boundedLbl=1;backgroundOutline=1;size=2.875;direction=south;fillColor=#f8cecc;strokeColor=default;rotation=-165;" parent="SB_XbFN75qQYpwVMNyd7-68" vertex="1">
          <mxGeometry x="106" y="106" width="21.875" height="25.71428571428571" as="geometry" />
        </mxCell>
        <mxCell id="SB_XbFN75qQYpwVMNyd7-75" value="&lt;span style=&quot;font-weight: 400;&quot;&gt;&lt;font style=&quot;color: rgb(0, 0, 0);&quot;&gt;`t = 3`&lt;/font&gt;&lt;/span&gt;" style="text;html=1;align=center;verticalAlign=middle;whiteSpace=wrap;rounded=0;fontSize=30;fontColor=#B9E0A5;fontStyle=1" parent="SB_XbFN75qQYpwVMNyd7-68" vertex="1">
          <mxGeometry x="-14.621778264910631" y="34.28847577293368" width="180" height="30" as="geometry" />
        </mxCell>
        <mxCell id="SB_XbFN75qQYpwVMNyd7-76" value="" style="group;rotation=-150;opacity=23;" parent="1" vertex="1" connectable="0">
          <mxGeometry x="1245.003950546386" y="323.0028827345204" width="169.99604945361398" height="120" as="geometry" />
        </mxCell>
        <mxCell id="SB_XbFN75qQYpwVMNyd7-77" value="" style="rounded=0;whiteSpace=wrap;html=1;fillColor=#f8cecc;strokeColor=default;rotation=-150;" parent="SB_XbFN75qQYpwVMNyd7-76" vertex="1">
          <mxGeometry x="39" y="17" width="78.75" height="68.57142857142857" as="geometry" />
        </mxCell>
        <mxCell id="SB_XbFN75qQYpwVMNyd7-78" value="" style="rounded=0;whiteSpace=wrap;html=1;fillColor=#dae8fc;strokeColor=default;rotation=-150;" parent="SB_XbFN75qQYpwVMNyd7-76" vertex="1">
          <mxGeometry x="87" y="6" width="26.25" height="17.142857142857142" as="geometry" />
        </mxCell>
        <mxCell id="SB_XbFN75qQYpwVMNyd7-79" value="" style="rounded=0;whiteSpace=wrap;html=1;fillColor=#dae8fc;strokeColor=default;rotation=-150;" parent="SB_XbFN75qQYpwVMNyd7-76" vertex="1">
          <mxGeometry x="52" y="80" width="8.75" height="17.142857142857142" as="geometry" />
        </mxCell>
        <mxCell id="SB_XbFN75qQYpwVMNyd7-80" value="" style="rounded=0;whiteSpace=wrap;html=1;fillColor=#dae8fc;strokeColor=default;rotation=-150;" parent="SB_XbFN75qQYpwVMNyd7-76" vertex="1">
          <mxGeometry x="1" y="96" width="96.25" height="8.571428571428571" as="geometry" />
        </mxCell>
        <mxCell id="SB_XbFN75qQYpwVMNyd7-81" value="" style="shape=cylinder3;whiteSpace=wrap;html=1;boundedLbl=1;backgroundOutline=1;size=2.875;direction=south;fillColor=#f8cecc;strokeColor=default;rotation=-150;" parent="SB_XbFN75qQYpwVMNyd7-76" vertex="1">
          <mxGeometry x="-13" y="58" width="21.875" height="25.71428571428571" as="geometry" />
        </mxCell>
        <mxCell id="SB_XbFN75qQYpwVMNyd7-82" value="" style="shape=cylinder3;whiteSpace=wrap;html=1;boundedLbl=1;backgroundOutline=1;size=2.875;direction=south;fillColor=#f8cecc;strokeColor=default;rotation=-150;" parent="SB_XbFN75qQYpwVMNyd7-76" vertex="1">
          <mxGeometry x="89" y="116" width="21.875" height="25.71428571428571" as="geometry" />
        </mxCell>
        <mxCell id="SB_XbFN75qQYpwVMNyd7-83" value="&lt;span style=&quot;font-weight: 400;&quot;&gt;&lt;font style=&quot;color: rgb(0, 0, 0);&quot;&gt;`t = 4`&lt;/font&gt;&lt;/span&gt;" style="text;html=1;align=center;verticalAlign=middle;whiteSpace=wrap;rounded=0;fontSize=30;fontColor=#B9E0A5;fontStyle=1" parent="SB_XbFN75qQYpwVMNyd7-76" vertex="1">
          <mxGeometry x="-10.003950546386022" y="36.28711726547954" width="180" height="30" as="geometry" />
        </mxCell>
        <mxCell id="SB_XbFN75qQYpwVMNyd7-84" style="edgeStyle=orthogonalEdgeStyle;rounded=0;orthogonalLoop=1;jettySize=auto;html=1;exitX=0.5;exitY=1;exitDx=0;exitDy=0;" parent="1" edge="1">
          <mxGeometry relative="1" as="geometry">
            <mxPoint x="1155" y="493.0000000000002" as="sourcePoint" />
            <mxPoint x="1155" y="493.0000000000002" as="targetPoint" />
          </mxGeometry>
        </mxCell>
        <mxCell id="SB_XbFN75qQYpwVMNyd7-85" value="" style="curved=1;endArrow=classic;html=1;rounded=0;exitX=0.5;exitY=1;exitDx=0;exitDy=0;entryX=0.5;entryY=1;entryDx=0;entryDy=0;" parent="1" source="SB_XbFN75qQYpwVMNyd7-50" target="SB_XbFN75qQYpwVMNyd7-78" edge="1">
          <mxGeometry width="50" height="50" relative="1" as="geometry">
            <mxPoint x="1015" y="589" as="sourcePoint" />
            <mxPoint x="1065" y="539" as="targetPoint" />
            <Array as="points">
              <mxPoint x="1165" y="729" />
              <mxPoint x="1205" y="709" />
              <mxPoint x="1215" y="679" />
              <mxPoint x="1265" y="609" />
              <mxPoint x="1265" y="559" />
              <mxPoint x="1295" y="479" />
              <mxPoint x="1285" y="449" />
              <mxPoint x="1305" y="399" />
            </Array>
          </mxGeometry>
        </mxCell>
        <mxCell id="SB_XbFN75qQYpwVMNyd7-86" value="&lt;font style=&quot;font-weight: normal; color: rgb(0, 0, 255);&quot;&gt;`r_1 = 0.4`&lt;/font&gt;" style="text;html=1;align=center;verticalAlign=middle;whiteSpace=wrap;rounded=0;fontSize=30;fontColor=#B9E0A5;fontStyle=1" parent="1" vertex="1">
          <mxGeometry x="1135" y="877" width="180" height="30" as="geometry" />
        </mxCell>
        <mxCell id="SB_XbFN75qQYpwVMNyd7-87" value="&lt;font style=&quot;font-weight: normal; color: rgb(255, 0, 0);&quot;&gt;`c_1 = 0`&lt;/font&gt;" style="text;html=1;align=center;verticalAlign=middle;whiteSpace=wrap;rounded=0;fontSize=30;fontColor=#B9E0A5;fontStyle=1" parent="1" vertex="1">
          <mxGeometry x="1123" y="917" width="180" height="30" as="geometry" />
        </mxCell>
        <mxCell id="SB_XbFN75qQYpwVMNyd7-88" value="&lt;font style=&quot;font-weight: normal; color: rgb(0, 0, 255);&quot;&gt;`r_2 = 0.5`&lt;/font&gt;" style="text;html=1;align=center;verticalAlign=middle;whiteSpace=wrap;rounded=0;fontSize=30;fontColor=#B9E0A5;fontStyle=1" parent="1" vertex="1">
          <mxGeometry x="1327" y="677" width="180" height="30" as="geometry" />
        </mxCell>
        <mxCell id="SB_XbFN75qQYpwVMNyd7-89" value="&lt;font style=&quot;font-weight: normal; color: rgb(255, 0, 0);&quot;&gt;`c_2 = 1.0`&lt;/font&gt;" style="text;html=1;align=center;verticalAlign=middle;whiteSpace=wrap;rounded=0;fontSize=30;fontColor=#B9E0A5;fontStyle=1" parent="1" vertex="1">
          <mxGeometry x="1327" y="718" width="180" height="30" as="geometry" />
        </mxCell>
        <mxCell id="SB_XbFN75qQYpwVMNyd7-90" value="&lt;font style=&quot;font-weight: normal; color: rgb(0, 0, 255);&quot;&gt;`r_3 = 0.6`&lt;/font&gt;" style="text;html=1;align=center;verticalAlign=middle;whiteSpace=wrap;rounded=0;fontSize=30;fontColor=#B9E0A5;fontStyle=1" parent="1" vertex="1">
          <mxGeometry x="1367" y="507" width="180" height="30" as="geometry" />
        </mxCell>
        <mxCell id="SB_XbFN75qQYpwVMNyd7-91" value="&lt;font style=&quot;font-weight: normal; color: rgb(255, 0, 0);&quot;&gt;`c_3 = 0`&lt;/font&gt;" style="text;html=1;align=center;verticalAlign=middle;whiteSpace=wrap;rounded=0;fontSize=30;fontColor=#B9E0A5;fontStyle=1" parent="1" vertex="1">
          <mxGeometry x="1355" y="547" width="180" height="30" as="geometry" />
        </mxCell>
        <mxCell id="SB_XbFN75qQYpwVMNyd7-92" value="&lt;font style=&quot;font-weight: normal; color: rgb(0, 0, 255);&quot;&gt;`r_4 = 0.7`&lt;/font&gt;" style="text;html=1;align=center;verticalAlign=middle;whiteSpace=wrap;rounded=0;fontSize=30;fontColor=#B9E0A5;fontStyle=1" parent="1" vertex="1">
          <mxGeometry x="1065" y="307" width="180" height="30" as="geometry" />
        </mxCell>
        <mxCell id="SB_XbFN75qQYpwVMNyd7-93" value="&lt;font style=&quot;font-weight: normal; color: rgb(255, 0, 0);&quot;&gt;`c_4 = 0`&lt;/font&gt;" style="text;html=1;align=center;verticalAlign=middle;whiteSpace=wrap;rounded=0;fontSize=30;fontColor=#B9E0A5;fontStyle=1" parent="1" vertex="1">
          <mxGeometry x="1053" y="347" width="180" height="30" as="geometry" />
        </mxCell>
        <mxCell id="SB_XbFN75qQYpwVMNyd7-94" value="" style="curved=1;endArrow=none;html=1;rounded=0;endFill=0;fillColor=#fff2cc;strokeColor=#FFD966;sketch=1;curveFitting=1;jiggle=2;flowAnimation=0;strokeWidth=5;" parent="1" edge="1">
          <mxGeometry width="50" height="50" relative="1" as="geometry">
            <mxPoint x="1125" y="887" as="sourcePoint" />
            <mxPoint x="1125" y="887" as="targetPoint" />
            <Array as="points">
              <mxPoint x="1085" y="907" />
              <mxPoint x="1045" y="887" />
              <mxPoint x="965" y="767" />
              <mxPoint x="1185" y="617" />
              <mxPoint x="1185" y="557" />
              <mxPoint x="1205" y="417" />
              <mxPoint x="1275" y="307" />
              <mxPoint x="1385" y="307" />
              <mxPoint x="1395" y="397" />
              <mxPoint x="1315" y="757" />
            </Array>
          </mxGeometry>
        </mxCell>
        <mxCell id="qMLOkEwiD3FjP3INkufq-2" value="" style="curved=1;endArrow=classic;html=1;rounded=0;fillColor=#fff2cc;strokeColor=#FFD966;strokeWidth=3;" edge="1" parent="1">
          <mxGeometry width="50" height="50" relative="1" as="geometry">
            <mxPoint x="1188" y="560" as="sourcePoint" />
            <mxPoint x="1080.4489795918366" y="240" as="targetPoint" />
            <Array as="points">
              <mxPoint x="1158" y="540" />
              <mxPoint x="1128" y="500" />
              <mxPoint x="1098" y="450" />
              <mxPoint x="1018" y="420" />
            </Array>
          </mxGeometry>
        </mxCell>
        <mxCell id="qMLOkEwiD3FjP3INkufq-5" value="Constraint satisfied" style="text;html=1;align=center;verticalAlign=middle;whiteSpace=wrap;rounded=0;fontSize=30;fontColor=#0000FF;" vertex="1" parent="1">
          <mxGeometry x="970" y="90" width="259" height="30" as="geometry" />
        </mxCell>
        <mxCell id="qMLOkEwiD3FjP3INkufq-6" value="" style="rounded=0;whiteSpace=wrap;html=1;fillColor=none;strokeColor=#FFD966;strokeWidth=3;" vertex="1" parent="1">
          <mxGeometry x="914" y="74" width="386" height="163" as="geometry" />
        </mxCell>
      </root>
    </mxGraphModel>
  </diagram>
</mxfile>
